<mxfile host="app.diagrams.net" agent="Mozilla/5.0 (Windows NT 10.0; Win64; x64) AppleWebKit/537.36 (KHTML, like Gecko) Chrome/138.0.0.0 Safari/537.36" version="27.1.6">
  <diagram name="Страница — 1" id="F8DKkiLkPoZ_JWJp_qmj">
    <mxGraphModel dx="1695" dy="679" grid="0" gridSize="10" guides="1" tooltips="1" connect="1" arrows="1" fold="1" page="0" pageScale="1" pageWidth="827" pageHeight="1169" math="0" shadow="0">
      <root>
        <mxCell id="0" />
        <mxCell id="1" parent="0" />
        <mxCell id="DAfk0GNIAxtbVsCdhq_5-26" style="edgeStyle=orthogonalEdgeStyle;rounded=0;orthogonalLoop=1;jettySize=auto;html=1;" edge="1" parent="1" source="DAfk0GNIAxtbVsCdhq_5-1">
          <mxGeometry relative="1" as="geometry">
            <mxPoint x="140" y="90.00000000000006" as="targetPoint" />
          </mxGeometry>
        </mxCell>
        <mxCell id="DAfk0GNIAxtbVsCdhq_5-1" value="Жанр" style="rounded=1;whiteSpace=wrap;html=1;" vertex="1" parent="1">
          <mxGeometry x="80" y="200" width="120" height="60" as="geometry" />
        </mxCell>
        <mxCell id="DAfk0GNIAxtbVsCdhq_5-8" style="edgeStyle=orthogonalEdgeStyle;rounded=0;orthogonalLoop=1;jettySize=auto;html=1;entryX=0.5;entryY=1;entryDx=0;entryDy=0;" edge="1" parent="1" source="DAfk0GNIAxtbVsCdhq_5-2" target="DAfk0GNIAxtbVsCdhq_5-1">
          <mxGeometry relative="1" as="geometry" />
        </mxCell>
        <mxCell id="DAfk0GNIAxtbVsCdhq_5-2" value="Исполнитель" style="rounded=1;whiteSpace=wrap;html=1;" vertex="1" parent="1">
          <mxGeometry x="80" y="320" width="120" height="60" as="geometry" />
        </mxCell>
        <mxCell id="DAfk0GNIAxtbVsCdhq_5-9" style="edgeStyle=orthogonalEdgeStyle;rounded=0;orthogonalLoop=1;jettySize=auto;html=1;entryX=0.5;entryY=1;entryDx=0;entryDy=0;" edge="1" parent="1" source="DAfk0GNIAxtbVsCdhq_5-3" target="DAfk0GNIAxtbVsCdhq_5-2">
          <mxGeometry relative="1" as="geometry" />
        </mxCell>
        <mxCell id="DAfk0GNIAxtbVsCdhq_5-3" value="Альбом" style="rounded=1;whiteSpace=wrap;html=1;" vertex="1" parent="1">
          <mxGeometry x="80" y="440" width="120" height="60" as="geometry" />
        </mxCell>
        <mxCell id="DAfk0GNIAxtbVsCdhq_5-10" style="edgeStyle=orthogonalEdgeStyle;rounded=0;orthogonalLoop=1;jettySize=auto;html=1;" edge="1" parent="1" source="DAfk0GNIAxtbVsCdhq_5-6" target="DAfk0GNIAxtbVsCdhq_5-3">
          <mxGeometry relative="1" as="geometry" />
        </mxCell>
        <mxCell id="DAfk0GNIAxtbVsCdhq_5-6" value="Трек" style="rounded=1;whiteSpace=wrap;html=1;" vertex="1" parent="1">
          <mxGeometry x="280" y="440" width="120" height="60" as="geometry" />
        </mxCell>
        <mxCell id="DAfk0GNIAxtbVsCdhq_5-12" style="edgeStyle=orthogonalEdgeStyle;rounded=0;orthogonalLoop=1;jettySize=auto;html=1;entryX=0;entryY=0.5;entryDx=0;entryDy=0;" edge="1" parent="1" source="DAfk0GNIAxtbVsCdhq_5-11" target="DAfk0GNIAxtbVsCdhq_5-1">
          <mxGeometry relative="1" as="geometry" />
        </mxCell>
        <mxCell id="DAfk0GNIAxtbVsCdhq_5-11" value="Название жанра" style="rounded=1;whiteSpace=wrap;html=1;" vertex="1" parent="1">
          <mxGeometry x="-120" y="200" width="120" height="60" as="geometry" />
        </mxCell>
        <mxCell id="DAfk0GNIAxtbVsCdhq_5-14" style="edgeStyle=orthogonalEdgeStyle;rounded=0;orthogonalLoop=1;jettySize=auto;html=1;entryX=0;entryY=0.5;entryDx=0;entryDy=0;" edge="1" parent="1" source="DAfk0GNIAxtbVsCdhq_5-13" target="DAfk0GNIAxtbVsCdhq_5-2">
          <mxGeometry relative="1" as="geometry" />
        </mxCell>
        <mxCell id="DAfk0GNIAxtbVsCdhq_5-13" value="Псевдоним исполнителя" style="rounded=1;whiteSpace=wrap;html=1;" vertex="1" parent="1">
          <mxGeometry x="-120" y="320" width="120" height="60" as="geometry" />
        </mxCell>
        <mxCell id="DAfk0GNIAxtbVsCdhq_5-17" style="edgeStyle=orthogonalEdgeStyle;rounded=0;orthogonalLoop=1;jettySize=auto;html=1;" edge="1" parent="1" source="DAfk0GNIAxtbVsCdhq_5-15" target="DAfk0GNIAxtbVsCdhq_5-3">
          <mxGeometry relative="1" as="geometry" />
        </mxCell>
        <mxCell id="DAfk0GNIAxtbVsCdhq_5-15" value="Название альбома" style="rounded=1;whiteSpace=wrap;html=1;" vertex="1" parent="1">
          <mxGeometry x="-120" y="440" width="120" height="60" as="geometry" />
        </mxCell>
        <mxCell id="DAfk0GNIAxtbVsCdhq_5-18" style="edgeStyle=orthogonalEdgeStyle;rounded=0;orthogonalLoop=1;jettySize=auto;html=1;entryX=0.5;entryY=1;entryDx=0;entryDy=0;" edge="1" parent="1" source="DAfk0GNIAxtbVsCdhq_5-16" target="DAfk0GNIAxtbVsCdhq_5-3">
          <mxGeometry relative="1" as="geometry" />
        </mxCell>
        <mxCell id="DAfk0GNIAxtbVsCdhq_5-16" value="Год выпуска" style="rounded=1;whiteSpace=wrap;html=1;" vertex="1" parent="1">
          <mxGeometry x="80" y="560" width="120" height="60" as="geometry" />
        </mxCell>
        <mxCell id="DAfk0GNIAxtbVsCdhq_5-22" style="edgeStyle=orthogonalEdgeStyle;rounded=0;orthogonalLoop=1;jettySize=auto;html=1;" edge="1" parent="1" source="DAfk0GNIAxtbVsCdhq_5-19" target="DAfk0GNIAxtbVsCdhq_5-6">
          <mxGeometry relative="1" as="geometry" />
        </mxCell>
        <mxCell id="DAfk0GNIAxtbVsCdhq_5-19" value="Название трека" style="rounded=1;whiteSpace=wrap;html=1;" vertex="1" parent="1">
          <mxGeometry x="480" y="440" width="120" height="60" as="geometry" />
        </mxCell>
        <mxCell id="DAfk0GNIAxtbVsCdhq_5-21" style="edgeStyle=orthogonalEdgeStyle;rounded=0;orthogonalLoop=1;jettySize=auto;html=1;entryX=0.5;entryY=1;entryDx=0;entryDy=0;" edge="1" parent="1" source="DAfk0GNIAxtbVsCdhq_5-20" target="DAfk0GNIAxtbVsCdhq_5-6">
          <mxGeometry relative="1" as="geometry" />
        </mxCell>
        <mxCell id="DAfk0GNIAxtbVsCdhq_5-20" value="Длительность трека" style="rounded=1;whiteSpace=wrap;html=1;" vertex="1" parent="1">
          <mxGeometry x="280" y="560" width="120" height="60" as="geometry" />
        </mxCell>
        <mxCell id="DAfk0GNIAxtbVsCdhq_5-23" value="Приложение" style="shape=umlActor;verticalLabelPosition=bottom;verticalAlign=top;html=1;outlineConnect=0;" vertex="1" parent="1">
          <mxGeometry x="125" y="10" width="30" height="60" as="geometry" />
        </mxCell>
      </root>
    </mxGraphModel>
  </diagram>
</mxfile>
